<?xml version="1.0" encoding="utf-8"?>
<!-- Generator: Adobe Illustrator 16.0.0, SVG Export Plug-In . SVG Version: 6.00 Build 0)  -->
<!DOCTYPE svg PUBLIC "-//W3C//DTD SVG 1.0//EN" "http://www.w3.org/TR/2001/REC-SVG-20010904/DTD/svg10.dtd">
<svg version="1.0" id="Layer_1" xmlns="http://www.w3.org/2000/svg" xmlns:xlink="http://www.w3.org/1999/xlink" x="0px" y="0px"
	 width="600.235px" height="91.135px" viewBox="0 0 600.235 91.135" enable-background="new 0 0 600.235 91.135"
	 xml:space="preserve">
<g>
	<path fill="#565656" d="M286.946,19.023h-21.342v19.058h18.446c0.61,0,1.145,0.229,1.602,0.686
		c0.457,0.457,0.687,0.989,0.687,1.601v6.861c0,0.61-0.23,1.144-0.687,1.601c-0.457,0.457-0.991,0.686-1.602,0.686h-18.446v22.869
		h23.173c0.66,0,1.206,0.229,1.638,0.686c0.431,0.457,0.647,0.99,0.647,1.6v6.861c0,0.61-0.216,1.144-0.647,1.601
		c-0.432,0.457-0.978,0.686-1.638,0.686h-36.134c-0.608,0-1.141-0.229-1.6-0.686c-0.457-0.457-0.686-0.99-0.686-1.601V9.875
		c0-0.609,0.229-1.143,0.686-1.601c0.459-0.458,0.992-0.686,1.6-0.686h37.582c0.61,0,1.078,0.216,1.411,0.648
		c0.331,0.432,0.42,0.953,0.266,1.563l-2.058,7.013c-0.154,0.611-0.509,1.131-1.067,1.563
		C288.216,18.807,287.606,19.023,286.946,19.023z"/>
	<path fill="#565656" d="M27.29,45.703l23.325,31.101c0.355,0.509,0.469,1.042,0.346,1.602c-0.129,0.559-0.472,0.964-1.03,1.22
		l-7.777,3.963c-0.558,0.254-1.168,0.305-1.829,0.154c-0.66-0.154-1.169-0.484-1.524-0.991L15.018,50.962v30.035
		c0,0.609-0.216,1.13-0.649,1.562c-0.431,0.432-0.98,0.649-1.64,0.649H2.288c-0.662,0-1.208-0.217-1.64-0.649
		C0.216,82.127,0,81.606,0,80.997V10.41c0-0.611,0.216-1.131,0.647-1.563c0.432-0.432,0.978-0.648,1.64-0.648h10.441
		c0.66,0,1.209,0.216,1.64,0.648c0.433,0.432,0.649,0.953,0.649,1.563v30.034L38.802,8.656c0.355-0.508,0.864-0.839,1.524-0.99
		c0.66-0.154,1.271-0.103,1.829,0.151l7.777,3.964c0.558,0.254,0.9,0.662,1.03,1.22c0.124,0.561,0.009,1.095-0.346,1.601
		L27.29,45.703z"/>
	<path fill="#565656" d="M91.45,19.023H70.105v19.058h18.446c0.61,0,1.144,0.229,1.603,0.686c0.457,0.457,0.686,0.989,0.686,1.601
		v6.861c0,0.61-0.229,1.144-0.686,1.601c-0.459,0.457-0.992,0.686-1.603,0.686H70.105v22.869h23.173c0.66,0,1.206,0.229,1.641,0.686
		c0.429,0.457,0.647,0.99,0.647,1.6v6.861c0,0.61-0.219,1.144-0.647,1.601c-0.435,0.457-0.98,0.686-1.641,0.686H57.147
		c-0.61,0-1.145-0.229-1.601-0.686c-0.459-0.457-0.687-0.99-0.687-1.601V9.875c0-0.609,0.228-1.143,0.687-1.601
		c0.457-0.458,0.991-0.686,1.601-0.686h37.58c0.61,0,1.08,0.216,1.409,0.648c0.331,0.432,0.419,0.953,0.268,1.563l-2.059,7.013
		c-0.151,0.611-0.508,1.131-1.067,1.563C92.72,18.807,92.11,19.023,91.45,19.023z"/>
	<path fill="#565656" d="M146.764,7.588c0.61,0,1.08,0.216,1.41,0.648c0.33,0.432,0.418,0.953,0.267,1.563l-2.059,7.013
		c-0.151,0.611-0.509,1.131-1.067,1.563c-0.558,0.432-1.168,0.647-1.829,0.647h-13.874v62.508c0,0.61-0.229,1.144-0.686,1.601
		c-0.459,0.457-0.992,0.686-1.602,0.686h-10.67c-0.662,0-1.209-0.229-1.64-0.686c-0.431-0.457-0.647-0.99-0.647-1.601V19.023
		h-14.102c-0.611,0-1.144-0.228-1.6-0.687c-0.459-0.458-0.688-0.991-0.688-1.6V9.875c0-0.609,0.229-1.143,0.688-1.601
		c0.457-0.458,0.989-0.686,1.6-0.686H146.764z"/>
	<path fill="#565656" d="M199.896,7.588c0.608,0,1.078,0.216,1.409,0.648c0.331,0.432,0.42,0.953,0.266,1.563l-2.057,7.013
		c-0.155,0.611-0.509,1.131-1.068,1.563c-0.561,0.432-1.171,0.647-1.828,0.647h-13.873v62.508c0,0.61-0.231,1.144-0.688,1.601
		c-0.457,0.457-0.991,0.686-1.601,0.686h-10.672c-0.66,0-1.208-0.229-1.637-0.686c-0.435-0.457-0.648-0.99-0.648-1.601V19.023
		h-14.104c-0.608,0-1.142-0.228-1.601-0.687c-0.457-0.458-0.684-0.991-0.684-1.6V9.875c0-0.609,0.228-1.143,0.684-1.601
		c0.459-0.458,0.993-0.686,1.601-0.686H199.896z"/>
	<path fill="#565656" d="M245.834,72.383c0.611,0,1.08,0.215,1.41,0.647c0.331,0.432,0.419,0.953,0.268,1.563l-1.983,7.013
		c-0.203,0.61-0.583,1.13-1.144,1.563c-0.558,0.431-1.168,0.648-1.828,0.648h-36.132c-0.611,0-1.145-0.229-1.601-0.686
		c-0.459-0.457-0.688-0.99-0.688-1.601V9.875c0-0.609,0.229-1.143,0.688-1.601c0.457-0.458,0.99-0.686,1.601-0.686h10.672
		c0.607,0,1.141,0.229,1.6,0.686c0.457,0.458,0.684,0.992,0.684,1.601v62.508H245.834z"/>
</g>
<polygon fill="#565656" points="346.939,6.476 346.94,6.476 346.94,6.476 "/>
<polygon fill="#565656" points="345.179,10.384 345.179,10.384 345.179,10.384 "/>
<path fill="#565656" d="M346.939,91.004c-28.118,0-50.994-20.066-50.994-44.732c0-5.47,1.112-10.806,3.308-15.878
	c-1.112-2.09-1.675-4.261-1.675-6.469c0-3.763,1.65-7.448,4.771-10.657c2.662-2.736,6.373-5.15,11.028-7.174
	C322.416,2.165,334.335,0,346.939,0c12.599,0,24.516,2.165,33.557,6.094c4.663,2.028,8.375,4.441,11.033,7.173
	c3.122,3.21,4.771,6.896,4.771,10.658c0,2.208-0.562,4.378-1.675,6.469c2.2,5.078,3.314,10.413,3.314,15.877
	C397.94,70.938,375.062,91.004,346.939,91.004z M346.939,4.5c-12.001,0-23.283,2.032-31.769,5.721
	c-4.116,1.79-7.344,3.87-9.596,6.184c-1.595,1.64-3.497,4.277-3.497,7.52c0,1.724,0.539,3.453,1.603,5.138l0.656,1.04l-0.52,1.113
	c-2.237,4.792-3.372,9.858-3.372,15.056c0,22.185,20.857,40.232,46.494,40.232c25.641,0,46.501-18.047,46.501-40.232
	c0-5.19-1.137-10.256-3.378-15.055l-0.521-1.113l0.655-1.04c1.064-1.686,1.604-3.415,1.604-5.139c0-3.243-1.901-5.88-3.497-7.521
	c-2.248-2.31-5.479-4.39-9.603-6.184C370.215,6.532,358.935,4.5,346.939,4.5z M346.94,39.577c-9.301,0-18.053-1.581-24.646-4.451
	c-3.204-1.394-5.831-3.093-7.597-4.912c-1.914-1.969-2.884-4.084-2.884-6.287c0-2.198,0.971-4.312,2.885-6.282
	c1.764-1.817,4.391-3.515,7.596-4.911c6.594-2.871,15.346-4.452,24.646-4.452c9.301,0,18.052,1.581,24.644,4.451
	c3.198,1.392,5.823,3.09,7.592,4.912c1.918,1.974,2.891,4.088,2.891,6.282c0,2.198-0.973,4.314-2.892,6.288
	c-1.767,1.819-4.392,3.518-7.59,4.911C364.992,37.996,356.24,39.577,346.94,39.577z"/>
<g>
	<g>
		<path fill="#565656" d="M600.048,0H344.565c13.354,0,25.454,2.329,34.413,6.224c4.479,1.947,8.183,4.28,10.864,7.036
			c2.682,2.757,4.354,6.037,4.354,9.575c0,2.367-0.755,4.619-2.054,6.678c2.435,5.214,3.773,10.912,3.773,16.865
			c0,24.579-22.814,44.756-51.352,44.756h255.67L585.42,45.277L600.048,0z M442.809,69.525l-1.644,5.814
			c-0.168,0.506-0.484,0.938-0.948,1.297c-0.464,0.355-0.969,0.537-1.517,0.537h-29.963c-0.505,0-0.947-0.191-1.327-0.57
			c-0.379-0.379-0.568-0.82-0.568-1.326V15.858c0-0.506,0.189-0.949,0.568-1.327c0.38-0.379,0.822-0.569,1.327-0.569h8.851
			c0.505,0,0.947,0.19,1.327,0.569c0.38,0.378,0.568,0.821,0.568,1.327v51.833h21.936c0.505,0,0.894,0.18,1.168,0.537
			S442.935,69.02,442.809,69.525z M494.916,76.637c-0.253,0.355-0.653,0.537-1.201,0.537h-9.166c-0.505,0-0.99-0.182-1.453-0.537
			c-0.464-0.359-0.759-0.791-0.885-1.297l-3.604-14.918h-17.763l-3.54,14.918c-0.126,0.506-0.421,0.938-0.885,1.297
			c-0.464,0.355-0.947,0.537-1.454,0.537H445.8c-0.547,0-0.947-0.182-1.2-0.537c-0.253-0.359-0.315-0.791-0.189-1.297l18.142-59.545
			c0.168-0.506,0.495-0.937,0.979-1.296c0.484-0.357,0.98-0.537,1.485-0.537h9.481c0.507,0,1.001,0.18,1.486,0.537
			c0.483,0.359,0.79,0.791,0.916,1.296l18.205,59.545C495.231,75.846,495.169,76.277,494.916,76.637z M532.811,72.084
			c-3.394,3.393-7.47,5.09-12.231,5.09h-20.291c-0.505,0-0.947-0.191-1.327-0.57s-0.569-0.82-0.569-1.326V15.858
			c0-0.506,0.189-0.949,0.569-1.327c0.38-0.379,0.822-0.569,1.327-0.569h19.975c4.593,0,8.513,1.622,11.758,4.867
			s4.867,7.165,4.867,11.757c0,2.95-0.706,5.668-2.117,8.155c-1.413,2.487-3.319,4.488-5.722,6.004
			c2.697,1.518,4.846,3.614,6.448,6.29c1.601,2.676,2.402,5.615,2.402,8.818C537.899,64.613,536.202,68.693,532.811,72.084z
			 M574.106,66.744c-1.116,2.484-2.613,4.465-4.487,5.941c-1.876,1.475-3.94,2.592-6.194,3.35c-2.256,0.758-4.604,1.139-7.048,1.139
			c-2.824,0-5.669-0.34-8.534-1.012c-2.866-0.676-5.036-1.35-6.511-2.023l-2.213-1.012c-0.843-0.379-1.116-0.969-0.821-1.77
			l2.908-7.902c0.294-0.715,0.778-0.904,1.453-0.566c0.507,0.293,1.223,0.684,2.149,1.168s2.602,1.115,5.026,1.896
			c2.422,0.779,4.603,1.17,6.542,1.17c1.558,0,2.886-0.264,3.981-0.791s1.906-1.223,2.435-2.086
			c0.525-0.863,0.905-1.695,1.138-2.496c0.23-0.801,0.348-1.621,0.348-2.465c0-1.686-0.475-3.182-1.423-4.488
			c-0.947-1.306-2.182-2.403-3.697-3.288c-1.518-0.885-3.183-1.738-4.994-2.561c-1.812-0.82-3.635-1.748-5.468-2.781
			c-1.833-1.031-3.499-2.201-4.993-3.508c-1.497-1.305-2.719-3.023-3.667-5.151c-0.947-2.128-1.422-4.583-1.422-7.365
			c0-4.678,1.738-8.543,5.215-11.599c3.477-3.056,8.164-4.583,14.064-4.583c2.149,0,4.276,0.221,6.385,0.664
			c2.105,0.442,3.824,0.928,5.151,1.454c1.327,0.528,2.391,1.022,3.192,1.486l1.264,0.632c0.8,0.463,1.011,1.138,0.633,2.023
			l-3.161,6.637c-0.337,0.717-0.821,0.864-1.453,0.442c-0.464-0.253-1.086-0.589-1.865-1.011c-0.78-0.421-2.181-0.969-4.204-1.644
			c-2.022-0.673-3.855-1.01-5.499-1.01c-2.781,0-4.815,0.622-6.101,1.864s-1.928,2.749-1.928,4.52c0,1.39,0.464,2.634,1.392,3.729
			c0.926,1.097,2.138,2.044,3.635,2.844c1.494,0.801,3.148,1.612,4.962,2.434c1.811,0.821,3.623,1.77,5.437,2.845
			c1.811,1.074,3.465,2.297,4.962,3.666c1.494,1.37,2.718,3.15,3.665,5.342c0.949,2.191,1.423,4.677,1.423,7.458
			C575.782,61.455,575.223,64.258,574.106,66.744z"/>
	</g>
	<polygon fill="#565656" points="463.151,50.57 476.362,50.57 469.788,23.072 	"/>
	<path fill="#565656" d="M511.034,23.443v16.688h4.867c2.317,0,4.287-0.811,5.911-2.433c1.621-1.621,2.433-3.593,2.433-5.911
		c0-2.317-0.812-4.287-2.433-5.911c-1.624-1.621-3.594-2.433-5.911-2.433H511.034z"/>
	<path fill="#565656" d="M516.218,67.691c2.485,0,4.614-0.885,6.385-2.656c1.77-1.77,2.654-3.896,2.654-6.383
		s-0.885-4.615-2.654-6.384c-1.771-1.77-3.899-2.655-6.385-2.655h-5.184v18.079H516.218z"/>
</g>
</svg>
