<?xml version="1.0" encoding="utf-8"?>
<!-- Generator: Adobe Illustrator 16.0.0, SVG Export Plug-In . SVG Version: 6.00 Build 0)  -->
<!DOCTYPE svg PUBLIC "-//W3C//DTD SVG 1.0//EN" "http://www.w3.org/TR/2001/REC-SVG-20010904/DTD/svg10.dtd">
<svg version="1.0" id="Layer_1" xmlns="http://www.w3.org/2000/svg" xmlns:xlink="http://www.w3.org/1999/xlink" x="0px" y="0px"
	 width="304.29px" height="91.135px" viewBox="0 0 304.29 91.135" enable-background="new 0 0 304.29 91.135" xml:space="preserve">
<polygon fill="#333333" points="50.994,6.476 50.995,6.476 50.995,6.476 "/>
<polygon fill="#333333" points="49.233,10.384 49.233,10.384 49.233,10.384 "/>
<path fill="#333333" d="M50.994,91.004C22.875,91.004,0,70.938,0,46.272c0-5.47,1.112-10.806,3.308-15.878
	c-1.112-2.09-1.675-4.261-1.675-6.469c0-3.763,1.65-7.448,4.771-10.657c2.662-2.736,6.373-5.15,11.028-7.174
	C26.47,2.165,38.389,0,50.994,0C63.592,0,75.509,2.165,84.55,6.094c4.663,2.028,8.375,4.441,11.033,7.173
	c3.122,3.21,4.771,6.896,4.771,10.658c0,2.208-0.562,4.378-1.675,6.469c2.2,5.078,3.314,10.413,3.314,15.877
	C101.995,70.938,79.116,91.004,50.994,91.004z M50.994,4.5c-12.001,0-23.283,2.032-31.769,5.721c-4.116,1.79-7.344,3.87-9.596,6.184
	c-1.595,1.64-3.497,4.277-3.497,7.52c0,1.724,0.539,3.453,1.603,5.138l0.656,1.04l-0.52,1.113C5.634,36.008,4.5,41.074,4.5,46.272
	c0,22.185,20.857,40.232,46.494,40.232c25.641,0,46.501-18.047,46.501-40.232c0-5.19-1.137-10.256-3.378-15.055l-0.521-1.113
	l0.655-1.04c1.064-1.686,1.604-3.415,1.604-5.139c0-3.243-1.901-5.88-3.497-7.521c-2.248-2.31-5.479-4.39-9.603-6.184
	C74.269,6.532,62.989,4.5,50.994,4.5z M50.995,39.577c-9.301,0-18.053-1.581-24.646-4.451c-3.204-1.394-5.831-3.093-7.597-4.912
	c-1.914-1.969-2.884-4.084-2.884-6.287c0-2.198,0.971-4.312,2.885-6.282c1.764-1.817,4.391-3.515,7.596-4.911
	c6.594-2.871,15.346-4.452,24.646-4.452c9.301,0,18.052,1.581,24.644,4.451c3.198,1.392,5.823,3.09,7.592,4.912
	c1.918,1.974,2.891,4.088,2.891,6.282c0,2.198-0.973,4.314-2.892,6.288c-1.767,1.819-4.392,3.518-7.59,4.911
	C69.046,37.996,60.294,39.577,50.995,39.577z"/>
<g>
	<g>
		<path fill="#333333" d="M304.103,0H48.62c13.354,0,25.454,2.329,34.413,6.224c4.479,1.947,8.183,4.28,10.864,7.036
			c2.682,2.757,4.354,6.037,4.354,9.575c0,2.367-0.755,4.619-2.054,6.678c2.435,5.214,3.773,10.912,3.773,16.865
			c0,24.579-22.814,44.756-51.352,44.756h255.67l-14.816-45.857L304.103,0z M146.863,69.525l-1.644,5.814
			c-0.168,0.506-0.484,0.938-0.948,1.297c-0.464,0.355-0.969,0.537-1.517,0.537h-29.963c-0.505,0-0.947-0.191-1.327-0.57
			c-0.379-0.379-0.568-0.82-0.568-1.326V15.858c0-0.506,0.189-0.949,0.568-1.327c0.38-0.379,0.822-0.569,1.327-0.569h8.851
			c0.505,0,0.947,0.19,1.327,0.569c0.38,0.378,0.568,0.821,0.568,1.327v51.833h21.936c0.505,0,0.894,0.18,1.168,0.537
			S146.989,69.02,146.863,69.525z M198.97,76.637c-0.252,0.355-0.652,0.537-1.201,0.537h-9.166c-0.504,0-0.99-0.182-1.453-0.537
			c-0.463-0.359-0.758-0.791-0.885-1.297l-3.604-14.918h-17.762l-3.541,14.918c-0.125,0.506-0.42,0.938-0.885,1.297
			c-0.463,0.355-0.947,0.537-1.453,0.537h-9.167c-0.547,0-0.947-0.182-1.2-0.537c-0.253-0.359-0.315-0.791-0.189-1.297
			l18.142-59.545c0.168-0.506,0.494-0.937,0.979-1.296c0.484-0.357,0.98-0.537,1.486-0.537h9.48c0.508,0,1.002,0.18,1.486,0.537
			c0.484,0.359,0.791,0.791,0.916,1.296l18.205,59.545C199.286,75.846,199.224,76.277,198.97,76.637z M236.864,72.084
			c-3.393,3.393-7.469,5.09-12.23,5.09h-20.291c-0.506,0-0.947-0.191-1.328-0.57c-0.379-0.379-0.568-0.82-0.568-1.326V15.858
			c0-0.506,0.189-0.949,0.568-1.327c0.381-0.379,0.822-0.569,1.328-0.569h19.975c4.592,0,8.512,1.622,11.758,4.867
			c3.244,3.245,4.867,7.165,4.867,11.757c0,2.95-0.707,5.668-2.117,8.155c-1.414,2.487-3.32,4.488-5.723,6.004
			c2.697,1.518,4.846,3.614,6.449,6.29c1.6,2.676,2.402,5.615,2.402,8.818C241.954,64.613,240.257,68.693,236.864,72.084z
			 M278.161,66.744c-1.117,2.484-2.613,4.465-4.488,5.941c-1.875,1.475-3.939,2.592-6.193,3.35
			c-2.256,0.758-4.605,1.139-7.049,1.139c-2.824,0-5.668-0.34-8.533-1.012c-2.867-0.676-5.037-1.35-6.512-2.023l-2.213-1.012
			c-0.842-0.379-1.115-0.969-0.82-1.77l2.908-7.902c0.293-0.715,0.777-0.904,1.453-0.566c0.506,0.293,1.223,0.684,2.148,1.168
			c0.928,0.484,2.602,1.115,5.027,1.896c2.422,0.779,4.602,1.17,6.541,1.17c1.559,0,2.887-0.264,3.982-0.791
			s1.906-1.223,2.434-2.086c0.525-0.863,0.906-1.695,1.139-2.496c0.23-0.801,0.348-1.621,0.348-2.465
			c0-1.686-0.475-3.182-1.424-4.488c-0.947-1.307-2.182-2.402-3.697-3.287c-1.518-0.885-3.182-1.738-4.994-2.561
			c-1.811-0.82-3.635-1.748-5.467-2.782c-1.834-1.031-3.5-2.201-4.994-3.508c-1.496-1.305-2.719-3.023-3.666-5.151
			c-0.947-2.128-1.422-4.583-1.422-7.365c0-4.678,1.738-8.543,5.215-11.599c3.477-3.056,8.164-4.583,14.064-4.583
			c2.148,0,4.275,0.221,6.385,0.664c2.105,0.442,3.824,0.928,5.15,1.454c1.328,0.528,2.391,1.022,3.193,1.486l1.264,0.632
			c0.799,0.463,1.01,1.138,0.633,2.023l-3.162,6.637c-0.336,0.717-0.82,0.864-1.453,0.442c-0.463-0.253-1.086-0.589-1.865-1.011
			c-0.779-0.421-2.18-0.969-4.203-1.644c-2.023-0.673-3.855-1.01-5.5-1.01c-2.781,0-4.814,0.622-6.1,1.864s-1.928,2.749-1.928,4.52
			c0,1.39,0.463,2.634,1.391,3.729c0.926,1.097,2.139,2.044,3.635,2.844c1.494,0.801,3.148,1.612,4.963,2.434
			c1.811,0.821,3.623,1.77,5.436,2.845c1.811,1.074,3.465,2.297,4.963,3.666c1.494,1.371,2.717,3.15,3.664,5.341
			c0.949,2.191,1.424,4.678,1.424,7.459C279.837,61.455,279.276,64.258,278.161,66.744z"/>
	</g>
	<polygon fill="#333333" points="167.206,50.57 180.417,50.57 173.843,23.072 	"/>
	<path fill="#333333" d="M215.089,23.443v16.688h4.867c2.316,0,4.287-0.811,5.91-2.433c1.621-1.621,2.434-3.593,2.434-5.911
		c0-2.317-0.812-4.287-2.434-5.911c-1.623-1.621-3.594-2.433-5.91-2.433H215.089z"/>
	<path fill="#333333" d="M220.272,67.691c2.484,0,4.613-0.885,6.385-2.656c1.77-1.77,2.654-3.896,2.654-6.383
		s-0.885-4.615-2.654-6.385c-1.771-1.77-3.9-2.654-6.385-2.654h-5.184v18.078H220.272z"/>
</g>
</svg>
