<svg xmlns="http://www.w3.org/2000/svg" viewBox="277 -24.5 140 140">
	<rect x="277" y="-24.5" width="140" height="140" rx="28" style="fill: oklch(96.6% 0.005 106.5)"/>
	<path fill="#565656" d="M346.939,91.004c-28.118,0-50.994-20.066-50.994-44.732c0-5.47,1.112-10.806,3.308-15.878
		c-1.112-2.09-1.675-4.261-1.675-6.469c0-3.763,1.65-7.448,4.771-10.657c2.662-2.736,6.373-5.15,11.028-7.174
		C322.416,2.165,334.335,0,346.939,0c12.599,0,24.516,2.165,33.557,6.094c4.663,2.028,8.375,4.441,11.033,7.173
		c3.122,3.21,4.771,6.896,4.771,10.658c0,2.208-0.562,4.378-1.675,6.469c2.2,5.078,3.314,10.413,3.314,15.877
		C397.94,70.938,375.062,91.004,346.939,91.004z M346.939,4.5c-12.001,0-23.283,2.032-31.769,5.721
		c-4.116,1.79-7.344,3.87-9.596,6.184c-1.595,1.64-3.497,4.277-3.497,7.52c0,1.724,0.539,3.453,1.603,5.138l0.656,1.04l-0.52,1.113
		c-2.237,4.792-3.372,9.858-3.372,15.056c0,22.185,20.857,40.232,46.494,40.232c25.641,0,46.501-18.047,46.501-40.232
		c0-5.19-1.137-10.256-3.378-15.055l-0.521-1.113l0.655-1.04c1.064-1.686,1.604-3.415,1.604-5.139c0-3.243-1.901-5.88-3.497-7.521
		c-2.248-2.31-5.479-4.39-9.603-6.184C370.215,6.532,358.935,4.5,346.939,4.5z M346.94,39.577c-9.301,0-18.053-1.581-24.646-4.451
		c-3.204-1.394-5.831-3.093-7.597-4.912c-1.914-1.969-2.884-4.084-2.884-6.287c0-2.198,0.971-4.312,2.885-6.282
		c1.764-1.817,4.391-3.515,7.596-4.911c6.594-2.871,15.346-4.452,24.646-4.452c9.301,0,18.052,1.581,24.644,4.451
		c3.198,1.392,5.823,3.09,7.592,4.912c1.918,1.974,2.891,4.088,2.891,6.282c0,2.198-0.973,4.314-2.892,6.288
		c-1.767,1.819-4.392,3.518-7.59,4.911C364.992,37.996,356.24,39.577,346.94,39.577z"/>
</svg>
